<?xml version="1.0" encoding="UTF-8" standalone="no"?>
<!-- Generated by IcoMoon.io -->

<svg
   xmlns:dc="http://purl.org/dc/elements/1.1/"
   xmlns:cc="http://creativecommons.org/ns#"
   xmlns:rdf="http://www.w3.org/1999/02/22-rdf-syntax-ns#"
   xmlns:svg="http://www.w3.org/2000/svg"
   xmlns="http://www.w3.org/2000/svg"
   xmlns:sodipodi="http://sodipodi.sourceforge.net/DTD/sodipodi-0.dtd"
   xmlns:inkscape="http://www.inkscape.org/namespaces/inkscape"
   version="1.1"
   width="9.8461533"
   height="7.5744791"
   viewBox="0 0 9.8461533 7.5744791"
   id="svg2"
   inkscape:version="0.48.5 r10040"
   sodipodi:docname="bullet_point.svg">
  <metadata
     id="metadata13">
    <rdf:RDF>
      <cc:Work
         rdf:about="">
        <dc:format>image/svg+xml</dc:format>
        <dc:type
           rdf:resource="http://purl.org/dc/dcmitype/StillImage" />
      </cc:Work>
    </rdf:RDF>
  </metadata>
  <defs
     id="defs11" />
  <sodipodi:namedview
     pagecolor="#ffffff"
     bordercolor="#666666"
     borderopacity="1"
     objecttolerance="10"
     gridtolerance="10"
     guidetolerance="10"
     inkscape:pageopacity="0"
     inkscape:pageshadow="2"
     inkscape:window-width="1680"
     inkscape:window-height="988"
     id="namedview9"
     showgrid="false"
     fit-margin-top="-2.7755576e-017"
     fit-margin-left="0"
     fit-margin-right="0"
     fit-margin-bottom="0"
     inkscape:zoom="53.635632"
     inkscape:cx="5.3915668"
     inkscape:cy="2.1453786"
     inkscape:window-x="-8"
     inkscape:window-y="-8"
     inkscape:window-maximized="1"
     inkscape:current-layer="svg2"
     borderlayer="false"
     showborder="true"
     inkscape:showpageshadow="true" />
  <g
     id="icomoon-ignore"
     transform="matrix(0,-0.30769232,0.30769232,0,5.6119407,0.15384614)">
    <line
       x1="0"
       y1="0"
       x2="0"
       y2="0"
       opacity=""
       id="line5"
       style="stroke:#449fdb;stroke-width:1" />
  </g>
  <path
     d="M 0,3.8821717 C 0,5.9212481 1.6532306,7.574479 3.6923066,7.574479 C 5.7313848,7.574479 9.8461535,3.8821717 9.8461535,3.8821717 C 9.8461535,3.8821717 5.7313848,0.18986295 3.6923066,0.18986295 C 1.6532306,0.18986295 0,1.8430936 0,3.8821717 z M 6.1538458,3.8821717 C 6.1538458,5.2415558 5.0516926,6.3437098 3.6923066,6.3437098 C 2.3329232,6.3437098 1.2307694,5.2415558 1.2307694,3.8821717 C 1.2307694,2.5227871 2.3329232,1.4206328 3.6923066,1.4206328 C 5.0516926,1.4206328 6.1538458,2.5227871 6.1538458,3.8821717 z M 2.461538,3.8821717 C 2.461538,4.5618638 3.0126149,5.1129411 3.6923066,5.1129411 C 4.3720009,5.1129411 4.923076,4.5618638 4.923076,3.8821717 C 4.923076,3.2024796 4.3720009,2.6514022 3.6923066,2.6514022 C 3.0126149,2.6514022 2.461538,3.2024796 2.461538,3.8821717 z"
     id="path7"
     inkscape:connector-curvature="0"
     style="fill:#000000" />
</svg>
