<?xml version="1.0" encoding="UTF-8" standalone="no"?>
<!-- Created with Inkscape (http://www.inkscape.org/) -->

<svg
   xmlns:dc="http://purl.org/dc/elements/1.1/"
   xmlns:cc="http://creativecommons.org/ns#"
   xmlns:rdf="http://www.w3.org/1999/02/22-rdf-syntax-ns#"
   xmlns:svg="http://www.w3.org/2000/svg"
   xmlns="http://www.w3.org/2000/svg"
   xmlns:sodipodi="http://sodipodi.sourceforge.net/DTD/sodipodi-0.dtd"
   xmlns:inkscape="http://www.inkscape.org/namespaces/inkscape"
   id="svg2"
   viewBox="0 0 799.99998 977.79008"
   version="1.1"
   inkscape:version="0.48.5 r10040"
   width="100%"
   height="100%"
   sodipodi:docname="logo_for_ico.svg">
  <defs
     id="defs11" />
  <sodipodi:namedview
     pagecolor="#ffffff"
     bordercolor="#666666"
     borderopacity="1"
     objecttolerance="10"
     gridtolerance="10"
     guidetolerance="10"
     inkscape:pageopacity="0"
     inkscape:pageshadow="2"
     inkscape:window-width="640"
     inkscape:window-height="480"
     id="namedview9"
     showgrid="false"
     fit-margin-top="0"
     fit-margin-left="0"
     fit-margin-right="0"
     fit-margin-bottom="0"
     inkscape:zoom="0.30310501"
     inkscape:cx="333.69073"
     inkscape:cy="519.30107"
     inkscape:window-x="0"
     inkscape:window-y="0"
     inkscape:window-maximized="0"
     inkscape:current-layer="svg2" />
  <metadata
     id="metadata7">
    <rdf:RDF>
      <cc:Work
         rdf:about="">
        <dc:format>image/svg+xml</dc:format>
        <dc:type
           rdf:resource="http://purl.org/dc/dcmitype/StillImage" />
        <dc:title />
      </cc:Work>
    </rdf:RDF>
  </metadata>
  <g
     id="layer1"
     transform="matrix(1.1816619,0,0,1.1816619,-385.54509,-271.21085)">
    <g
       id="layer1-4"
       stroke-miterlimit="4"
       transform="translate(471.42625,245.71984)"
       style="stroke-miterlimit:4">
      <path
         id="path3862"
         d="M -144.84,696.64 C -141.67,689.05 -133.76,666.43 -130.42,655.37 C -120.73,623.33 -115.53,592.67 -114.67,562.39 C -113.8,531.65 -116.22,515.51 -130.24,458.39 C -143.25,405.4 -144.13,398.34 -144.72,343.13 C -145.27,291.87 -144.46,281.69 -137.29,249.39 C -123.23,186.01 -100.65,133.79 -69.817,93.35 C -60.442,81.05 -39.971,59.681 -29.36,53.76 C 10.56,18.894 72.14,-4.124 144.14,-13.738 C 166.82,-16.766 217.56,-17.067 238.14,-14.295 C 303.81,-5.4476 353.36,17.144 408.56,63.409 C 448.03,96.494 491.3,145.58 523.85,194.219 C 530.68,204.419 532.51,207.849 531.67,208.859 C 531.07,209.589 525.27,213.359 518.78,217.239 C 477.79,241.749 443.89,268.489 403.54,308.149 C 391.65,319.839 381.43,329.399 380.83,329.399 C 380.24,329.399 375.96,325.019 371.33,319.649 C 354.06,299.649 313.89,264.199 292.14,249.759 C 268.86,234.319 235.5,218.699 212.14,212.329 C 204.21,210.159 178.39,207.399 166.23,207.409 C 153.73,207.429 135.57,209.219 119.8,211.979 C 96.358,216.089 71.759,225.999 56.35,237.539 C 48.401,243.489 27.615,265.019 19.821,275.369 C 7.559,291.659 -7.864,319.829 -16.336,341.399 C -18.604,347.179 -21.076,353.249 -21.83,354.899 C -23.82,359.259 -30.161,381.509 -31.316,388.189 C -31.859,391.329 -33.41,399.749 -34.762,406.899 C -38.915,428.869 -39.734,441.949 -38.771,470.899 C -37.457,510.419 -37.623,536.939 -39.224,543.399 C -41.257,551.599 -50.846,576.269 -57.306,589.919 C -76.603,630.679 -105.13,668.369 -134.32,691.649 C -142.8,698.419 -146.27,700.069 -144.84,696.649 z"
         inkscape:connector-curvature="0"
         style="fill:#000000" />
      <path
         id="path3860"
         d="M 365.14,805.7 C 354.97,804.8 330,801.03 319.14,798.77 C 275.28,789.62 225.51,771.44 156.64,739.4 C 134.14,728.93 83.37,703.54 81.778,701.95 C 80.664,700.85 80.619,699.09 81.528,692.34 C 82.139,687.79 82.634,682.24 82.628,679.99 L 82.616,675.89 L 68.878,669.17 C 61.322,665.47 49.74,660.15 43.14,657.33 C 31.496,652.38 -14.841,636.39 -17.577,636.39 C -18.323,636.39 -21.609,639.14 -24.88,642.5 C -30.734,648.51 -30.893,648.59 -35.197,648 C -49.208,646.08 -49.495,641.01 -37.409,608.89 C -33.682,598.99 -30.064,589.09 -29.367,586.89 C -28.671,584.69 -26.334,578.21 -24.175,572.49 C -19.018,558.82 -16.708,548.63 -15.303,533.37 C -14.005,519.28 -14.547,491.3 -16.368,478.39 C -17.951,467.16 -17.993,439.06 -16.443,428.39 C -14.463,414.78 -11.442,400.51 -8.7142,391.89 C 9.2848,335.03 18.1018,319.73 49.1398,291.5 C 65.1118,276.97 89.8288,263.35 117.6398,253.77 C 139.3898,246.27 146.3498,244.51 157.1398,243.77 C 166.2398,243.15 184.8198,244.56 191.4998,246.37 C 193.4998,246.91 200.7598,248.55 207.6398,250.01 C 229.2598,254.59 251.4398,264.15 270.3498,277.05 C 275.7298,280.72 282.1598,285.08 284.6398,286.75 C 302.5398,298.77 344.5498,338.27 359.7598,357.39 C 368.0398,367.8 378.6698,382.91 383.5298,391.19 C 386.5098,396.26 386.6398,396.95 386.6398,407.69 C 386.6298,413.85 387.1498,427.19 387.7798,437.32 L 388.9198,455.74 L 385.0098,459.32 C 382.8498,461.29 380.2398,463.46 376.7698,465.03 L 369.6098,468.27 L 374.1598,482.39 C 376.0398,488.21 380.2098,502.12 383.1898,513.39 C 386.1698,524.67 389.9498,538.84 391.5798,544.89 C 393.2198,550.94 394.5698,557.47 394.5798,559.39 C 394.6098,564.91 390.9698,579.92 387.9798,586.57 L 385.2598,592.63 L 405.9298,654.76 C 436.7798,747.53 447.6398,780.84 447.6398,782.71 C 447.6398,783.64 447.2998,784.39 446.8898,784.39 C 446.4798,784.39 439.8398,783.72 432.1398,782.9 C 424.4398,782.08 413.0798,780.87 406.9098,780.22 C 400.7298,779.56 395.4198,779.28 395.1098,779.59 C 394.7998,779.9 396.6398,785.38 399.1998,791.78 C 401.7598,798.17 403.5898,804.08 403.2798,804.9 C 402.7898,806.15 399.9998,806.37 385.9198,806.23 C 376.6898,806.13 367.3398,805.9 365.1398,805.7 z"
         inkscape:connector-curvature="0"
         style="fill:#000000;stroke:#000000;stroke-width:10;stroke-dasharray:none" />
      <path
         id="path3858"
         d="M 432.64,782.7 C 407.75,780.05 395.04,778.22 393.99,777.16 C 391.8,774.95 367.63,710.2 350.77,661.39 C 342.69,638 327.98,593.16 317.14,558.89 C 314.01,548.99 310.93,540.36 310.29,539.72 C 309.66,539.07 301.26,537.35 291.64,535.9 C 265.83,532.01 236.24,525.88 224.13,521.91 C 211.15,517.66 201.64,512.79 201.64,510.39 C 201.64,507.09 216.92,494.69 229.64,487.67 C 242.35,480.66 259.11,475.81 282.14,472.47 C 297.72,470.22 332.36,467.86 336.11,468.8 C 338.66,469.44 340.76,475.02 345.53,493.9 C 349.8,510.79 352.64,536.97 352.64,559.49 V 571.18 L 360.39,578.88 C 369.19,587.61 375.24,591.57 381.01,592.35 L 384.99,592.89 L 405.3,653.89 C 428.31,723.05 447.64,781.88 447.64,782.78 C 447.64,783.41 438.85,783.36 432.64,782.7 z M 68.14,668.67 C 50.2,659.5 31.605,651.97 6.413,643.69 C -6.87,639.33 -17.325,635.37 -17.337,634.7 C -17.379,632.53 -3.239,616.5 1.454,613.39 C 7.5172,609.38 14.371,607.36 24.14,606.72 C 56.258,604.6 82.543,631.53 82.622,666.64 C 82.637,673.38 82.412,674.39 80.89,674.34 C 79.927,674.31 74.19,671.76 68.14,668.67 z"
         inkscape:connector-curvature="0"
         style="fill:#ffffff;stroke:#000000;stroke-width:10;stroke-dasharray:none" />
    </g>
  </g>
</svg>
