<?xml version="1.0" encoding="UTF-8" standalone="no"?>
<!-- Created with Inkscape (http://www.inkscape.org/) -->
<svg id="svg2" xmlns:rdf="http://www.w3.org/1999/02/22-rdf-syntax-ns#" xmlns="http://www.w3.org/2000/svg" viewBox="0 0 951.11 951.54" version="1.1" xmlns:cc="http://creativecommons.org/ns#" xmlns:dc="http://purl.org/dc/elements/1.1/">
 <metadata id="metadata7">
  <rdf:RDF>
   <cc:Work rdf:about="">
    <dc:format>image/svg+xml</dc:format>
    <dc:type rdf:resource="http://purl.org/dc/dcmitype/StillImage"/>
    <dc:title/>
   </cc:Work>
  </rdf:RDF>
 </metadata>
 <g id="layer1" transform="translate(286.98327,60.551099)">
  <path id="path3866" fill="#ffd400" d="M172.94,197.55c180.92,12.8,247.29,180.91,247.99,288.28,0,40.74-360.6,84.09-471.65,10.53-148.87-41.91-64.838-342.01,223.66-298.81z"/>
  <path id="path3864" d="M142.64,885.75c-59.239-6.87-109.04-20.92-158.42-44.71-48.487-23.36-89.875-52.83-128.62-91.6-25.09-25.11-42.27-46.17-61.26-75.12-40.51-61.74-64.93-129.64-74.41-206.93-2.55-20.81-2.55-82.18,0-103,11.88-96.81,47.07-178.85,108.55-253,12.42-14.987,41.38-43.86,57.07-56.913,76.376-63.532,167.11-100.79,265.59-109.06,15.46-1.298,59.53-1.298,75,0,88.83,7.456,172.78,39.091,244.09,91.989,34.18,25.352,71.41,62.639,96.63,96.789,50.04,67.72,79.87,143.6,90.49,230.19,1.41,11.51,1.78,22.14,1.78,51.5,0,29.37-0.37,40-1.78,51.5-11.88,96.8-47.31,179.37-108.57,253-12.62,15.17-41.52,44.01-57.05,56.92-68.74,57.18-145.52,91.59-236.09,105.82-15.81,2.48-18.44,2.6-63,2.81-25.58,0.11-48.08,0.03-50-0.19zm-162.7-386.42c2.093-0.58,4.031-1.65,4.307-2.37s-0.199-6.33-1.055-12.47c-0.857-6.14-1.564-13.74-1.573-16.88-0.008-3.14-0.443-6.39-0.965-7.22-1.436-2.26-12.824-2.01-16.456,0.37l-2.797,1.83,0.718,16.65c0.758,17.59,1.327,19.57,5.87,20.46,4.102,0.81,8.168,0.68,11.951-0.37zm8.48-104.78c0.707-0.45,3.105-6.63,5.3293-13.74,7.1582-22.86,6.7811-20.29,3.3703-23.03-6.2809-5.07-16.081-5.75-18.213-1.28-2.339,4.9-9.295,30.67-8.7,32.22,1.694,4.42,14.156,8.4,18.213,5.83zm366-57.71c4.93-2.06,9.05-6.04,11.32-10.95,3.36-7.24,2.83-8.62-7.27-19.06-5.04-5.22-10.26-9.76-11.59-10.09-8.77-2.2-21.15,9.24-21.22,19.6-0.02,3.02,1.12,4.58,9.29,12.75,10.22,10.22,11.93,10.9,19.47,7.75zm-314.36-38.13l11.687-11.19-1.118-4.15c-1.433-5.33-8.424-12.45-13.641-13.89-9.11-2.53-11.158-1.26-21.101,13.14-6.2686,9.08-6.7092,12.46-2.397,18.41,1.569,2.17,4.118,4.77,5.663,5.78,2.764,1.81,7.389,3.56,8.601,3.24,0.34-0.08,5.877-5.19,12.306-11.34zm255.43-15.56c6.84-4.16,11.5-14.24,9.77-21.14-0.91-3.64-20.36-16.62-24.9-16.62-7.07,0-15.15,8.58-16.35,17.35-1,7.23,0.51,9.36,11.92,16.91,11.18,7.41,12.68,7.67,19.56,3.5zm-176.97-30.83c10.27-3.92,12.62-7.09,12.62-17,0-5.5-0.45-7.25-2.76-10.74-3.23-4.88-8.77-8.72-13.83-9.6-5.92-1.02-16.158,2.68-19.882,7.19-7.874,9.53-5.997,22.89,4.262,30.32,5.22,3.78,9.33,3.75,19.59-0.17zm101.58-7.34c2.87-2.86,4.82-5.93,5.58-8.74,2.22-8.25-0.95-18.12-6.66-20.72-4.15-1.89-14.42-4.09-19.16-4.11-3.73-0.01-4.84,0.55-8.68,4.4-7.21,7.2-8.45,17.59-3.07,25.72,2.12,3.2,3.24,3.86,8.24,4.87,3.18,0.63,7.14,1.53,8.79,1.98,7.18,1.99,10.28,1.28,14.96-3.4z" stroke="#000000" stroke-miterlimit="4" stroke-dasharray="none" stroke-width="10" fill="#132944"/>
  <path id="path3862" d="M-144.84,696.64c3.17-7.59,11.08-30.21,14.42-41.27,9.69-32.04,14.89-62.7,15.75-92.98,0.87-30.74-1.55-46.88-15.57-104-13.01-52.99-13.89-60.05-14.48-115.26-0.55-51.26,0.26-61.44,7.43-93.74,14.06-63.38,36.64-115.6,67.473-156.04,9.375-12.3,29.846-33.669,40.457-42.234,39.92-32.222,101.5-55.24,173.5-64.854,22.68-3.028,73.42-3.329,94-0.557,65.67,8.8474,115.22,31.439,170.42,77.704,39.47,33.085,82.74,82.176,115.29,130.81,6.83,10.2,8.66,13.63,7.82,14.64-0.6,0.73-6.4,4.5-12.89,8.38-40.99,24.51-74.89,51.25-115.24,90.91-11.89,11.69-22.11,21.25-22.71,21.25-0.59,0-4.87-4.38-9.5-9.75-17.27-20-57.44-55.45-79.19-69.89-23.28-15.44-56.64-31.06-80-37.43-7.93-2.17-33.75-4.93-45.91-4.92-12.5,0.02-30.66,1.81-46.43,4.57-23.442,4.11-48.041,14.02-63.45,25.56-7.949,5.95-28.735,27.48-36.529,37.83-12.262,16.29-27.685,44.46-36.157,66.03-2.268,5.78-4.74,11.85-5.494,13.5-1.99,4.36-8.331,26.61-9.486,33.29-0.543,3.14-2.094,11.56-3.446,18.71-4.153,21.97-4.972,35.05-4.009,64,1.314,39.52,1.148,66.04-0.453,72.5-2.033,8.2-11.622,32.87-18.082,46.52-19.297,40.76-47.824,78.45-77.014,101.73-8.48,6.77-11.95,8.42-10.52,5z" stroke="#000000" stroke-miterlimit="4" stroke-dasharray="none" stroke-width="10" fill="#ffbf00"/>
  <path id="path3860" d="M365.14,805.7c-10.17-0.9-35.14-4.67-46-6.93-43.86-9.15-93.63-27.33-162.5-59.37-22.5-10.47-73.27-35.86-74.862-37.45-1.114-1.1-1.159-2.86-0.25-9.61,0.611-4.55,1.106-10.1,1.1-12.35l-0.012-4.1-13.738-6.72c-7.556-3.7-19.138-9.02-25.738-11.84-11.644-4.95-57.981-20.94-60.717-20.94-0.746,0-4.032,2.75-7.303,6.11-5.854,6.01-6.013,6.09-10.317,5.5-14.011-1.92-14.298-6.99-2.212-39.11,3.727-9.9,7.345-19.8,8.042-22,0.696-2.2,3.033-8.68,5.192-14.4,5.157-13.67,7.467-23.86,8.872-39.12,1.298-14.09,0.756-42.07-1.065-54.98-1.583-11.23-1.625-39.33-0.075-50,1.98-13.61,5.001-27.88,7.7288-36.5,17.999-56.86,26.816-72.16,57.854-100.39,15.972-14.53,40.689-28.15,68.5-37.73,21.75-7.5,28.71-9.26,39.5-10,9.1-0.62,27.68,0.79,34.36,2.6,2,0.54,9.26,2.18,16.14,3.64,21.62,4.58,43.8,14.14,62.71,27.04,5.38,3.67,11.81,8.03,14.29,9.7,17.9,12.02,59.91,51.52,75.12,70.64,8.28,10.41,18.91,25.52,23.77,33.8,2.98,5.07,3.11,5.76,3.11,16.5-0.01,6.16,0.51,19.5,1.14,29.63l1.14,18.42-3.91,3.58c-2.16,1.97-4.77,4.14-8.24,5.71l-7.16,3.24,4.55,14.12c1.88,5.82,6.05,19.73,9.03,31,2.98,11.28,6.76,25.45,8.39,31.5,1.64,6.05,2.99,12.58,3,14.5,0.03,5.52-3.61,20.53-6.6,27.18l-2.72,6.06,20.67,62.13c30.85,92.77,41.71,126.08,41.71,127.95,0,0.93-0.34,1.68-0.75,1.68s-7.05-0.67-14.75-1.49-19.06-2.03-25.23-2.68c-6.18-0.66-11.49-0.94-11.8-0.63s1.53,5.79,4.09,12.19c2.56,6.39,4.39,12.3,4.08,13.12-0.49,1.25-3.28,1.47-17.36,1.33-9.23-0.1-18.58-0.33-20.78-0.53z" stroke="#000000" stroke-miterlimit="4" stroke-dasharray="none" stroke-width="10" fill="#ff7f00"/>
  <path id="path3858" d="M432.64,782.7c-24.89-2.65-37.6-4.48-38.65-5.54-2.19-2.21-26.36-66.96-43.22-115.77-8.08-23.39-22.79-68.23-33.63-102.5-3.13-9.9-6.21-18.53-6.85-19.17-0.63-0.65-9.03-2.37-18.65-3.82-25.81-3.89-55.4-10.02-67.51-13.99-12.98-4.25-22.49-9.12-22.49-11.52,0-3.3,15.28-15.7,28-22.72,12.71-7.01,29.47-11.86,52.5-15.2,15.58-2.25,50.22-4.61,53.97-3.67,2.55,0.64,4.65,6.22,9.42,25.1,4.27,16.89,7.11,43.07,7.11,65.59v11.69l7.75,7.7c8.8,8.73,14.85,12.69,20.62,13.47l3.98,0.54,20.31,61c23.01,69.16,42.34,127.99,42.34,128.89,0,0.63-8.79,0.58-15-0.08zm-364.5-114.03c-17.94-9.17-36.535-16.7-61.727-24.98-13.283-4.36-23.738-8.32-23.75-8.99-0.042-2.17,14.098-18.2,18.791-21.31,6.0632-4.01,12.917-6.03,22.686-6.67,32.118-2.12,58.403,24.81,58.482,59.92,0.015,6.74-0.21,7.75-1.732,7.7-0.963-0.03-6.7-2.58-12.75-5.67z" stroke="#000000" stroke-dasharray="none" stroke-miterlimit="4" stroke-width="10" fill="#000300"/>
 </g>
</svg>
