<?xml version="1.0" encoding="UTF-8" standalone="no"?>
<!-- Created with Inkscape (http://www.inkscape.org/) -->

<svg
   xmlns:dc="http://purl.org/dc/elements/1.1/"
   xmlns:cc="http://creativecommons.org/ns#"
   xmlns:rdf="http://www.w3.org/1999/02/22-rdf-syntax-ns#"
   xmlns:svg="http://www.w3.org/2000/svg"
   xmlns="http://www.w3.org/2000/svg"
   xmlns:sodipodi="http://sodipodi.sourceforge.net/DTD/sodipodi-0.dtd"
   xmlns:inkscape="http://www.inkscape.org/namespaces/inkscape"
   id="svg2995"
   height="99"
   width="93"
   version="1.1"
   inkscape:version="0.48.5 r10040"
   sodipodi:docname="helmet.svg">
  <sodipodi:namedview
     pagecolor="#ffffff"
     bordercolor="#666666"
     borderopacity="1"
     objecttolerance="10"
     gridtolerance="10"
     guidetolerance="10"
     inkscape:pageopacity="0"
     inkscape:pageshadow="2"
     inkscape:window-width="1920"
     inkscape:window-height="1018"
     id="namedview6"
     showgrid="false"
     inkscape:zoom="2.3838384"
     inkscape:cx="-84.381356"
     inkscape:cy="52.670435"
     inkscape:window-x="-8"
     inkscape:window-y="-8"
     inkscape:window-maximized="1"
     inkscape:current-layer="svg2995" />
  <metadata
     id="metadata3001">
    <rdf:RDF>
      <cc:Work
         rdf:about="">
        <dc:format>image/svg+xml</dc:format>
        <dc:type
           rdf:resource="http://purl.org/dc/dcmitype/StillImage" />
        <dc:title />
      </cc:Work>
    </rdf:RDF>
  </metadata>
  <defs
     id="defs2999" />
  <path
     id="path3159"
     d="m2.7364,97.255c-0.74301-1.3883,0.02537-2.4495,3.9294-5.4268,5.9182-4.512,11.712-11.934,16.184-20.729,2.8946-5.6927,3.6316-6.4936,5.3564-5.8203,6.5515,2.5574,13.314-0.61096,12.321-5.7719-1.3229-6.8691-18.364-4.2478-20.21,3.1088-1.2152,4.8417-7.761,14.584-9.7988,14.584-4.8057,0-5.2877-2.6825-1.5799-8.7937,1.9041-3.1385,4.0526-7.9563,4.7744-10.706,1.4095-5.3703,6.3317-15.991,8.6142-18.588,2.703-3.0746-1.0775-6.7104-5.0221-3.0046l-2.38,2.237-7.6087-9.273c-9.1242-11.12-9.0273-9.32-0.8587-15.954,12.96-10.525,19.501-12.917,35.316-12.917,40.351,0,62.158,34.853,45.05,72-2.7894,6.0565-2.8095,14.721-0.04669,20.137,2.841,5.5689,1.8937,5.7925-3.4952,0.82522-7.9763-7.3523-11.87-16.014-10.997-24.462,2.1347-20.645,0.03362-31.272-5.9461-30.076-4.1409,0.82817-4.112,0.73213-2.6103,8.6909,1.1331,6.0053,1.1274,8.2457-0.0365,14.255-1.983,10.239-1.6523,14.197,1.8778,22.479,3.957,9.2838,3.5809,9.7551-4.4456,5.5714-8.1845-4.266-8.2808-4.2632-18.186,0.52675-15.222,7.362-37.918,11.373-40.202,7.108zm63.366-62.072c1.2559-1.2268-4.1566-7.3658-8.3011-9.4152-2.7511-1.3604-3.5646-1.4326-4.2347-0.37602-3.3685,5.3114,8.0176,14.205,12.536,9.7913zm-37.064-2.233c1.8812-1.2375,4.1495-2.7,5.0408-3.25,1.961-1.2101,2.3876-5.0274-1.0587-4.8813-1.4478,0.06138-11.209,5.2894-9.6948,7.8512,0.83564,1.4137,1.7409,2.8929,5.7128,0.28006zm21.264-6.0607c1.8134-3.2404-0.15228-4.6893-5.3734-4.6893-5.7764,0-8.3845,1.6176-7.2554,4.5,1.093,2.79,11.09,2.9384,12.629,0.18926z"
     fill="#FFF"
     style="fill:#ffffff;fill-opacity:1" />
</svg>
