<?xml version="1.0" encoding="UTF-8" standalone="no"?>
<!-- Created with Inkscape (http://www.inkscape.org/) -->
<svg id="svg2" xmlns:rdf="http://www.w3.org/1999/02/22-rdf-syntax-ns#" xmlns="http://www.w3.org/2000/svg" viewBox="0 0 77 77" height="100%" width="100%" version="1.1" xmlns:cc="http://creativecommons.org/ns#" xmlns:dc="http://purl.org/dc/elements/1.1/">
 <metadata id="metadata7">
  <rdf:RDF>
   <cc:Work rdf:about="">
    <dc:format>image/svg+xml</dc:format>
    <dc:type rdf:resource="http://purl.org/dc/dcmitype/StillImage"/>
    <dc:title/>
   </cc:Work>
  </rdf:RDF>
 </metadata>
 <path id="path2994" d="M-8.1389,21.096a5.6464,5.9516,0,1,1,-11.293,0,5.6464,5.9516,0,1,1,11.293,0z" transform="matrix(6.7475719,0,0,6.4015425,131.517,-96.546652)" stroke="#000" stroke-miterlimit="4" stroke-dasharray="none" stroke-width="0.12196192" fill="#132944"/>
 <path id="path3860" d="M52.794,70.13c-0.823-0.073-2.844-0.378-3.724-0.561-3.55-0.741-7.58-2.212-13.155-4.806-1.822-0.848-5.932-2.903-6.061-3.032-0.09-0.089-0.094-0.232-0.02-0.778,0.049-0.368,0.089-0.818,0.089-1l-0.001-0.332-1.112-0.544c-0.612-0.299-1.55-0.73-2.084-0.958-0.943-0.401-4.694-1.696-4.916-1.696-0.06,0-0.326,0.223-0.591,0.495-0.474,0.486-0.487,0.493-0.835,0.445-1.134-0.155-1.158-0.566-0.179-3.166,0.302-0.802,0.595-1.603,0.651-1.781s0.246-0.703,0.42-1.166c0.418-1.107,0.605-1.932,0.719-3.167,0.105-1.141,0.061-3.406-0.087-4.451-0.128-0.909-0.131-3.184-0.006-4.048,0.161-1.102,0.405-2.257,0.626-2.955,1.457-4.603,2.171-5.842,4.684-8.127,1.293-1.177,3.294-2.279,5.545-3.055,1.761-0.607,2.325-0.749,3.198-0.809,0.737-0.051,2.241,0.064,2.782,0.21,0.162,0.044,0.75,0.177,1.307,0.295,1.75,0.371,3.545,1.145,5.076,2.189,0.436,0.297,0.957,0.65,1.157,0.785,1.449,0.973,4.85,4.171,6.082,5.719,0.67,0.843,1.531,2.066,1.924,2.736,0.241,0.411,0.252,0.467,0.252,1.336-0.001,0.499,0.041,1.579,0.092,2.399l0.093,1.491-0.317,0.29c-0.175,0.16-0.386,0.335-0.667,0.462l-0.58,0.263,0.369,1.143c0.152,0.471,0.489,1.597,0.731,2.509,0.241,0.914,0.547,2.061,0.679,2.551,0.133,0.489,0.242,1.018,0.243,1.174,0.002,0.446-0.292,1.662-0.535,2.2l-0.22,0.491,1.674,5.029c2.497,7.511,3.376,10.208,3.376,10.359,0,0.075-0.027,0.136-0.06,0.136s-0.571-0.054-1.194-0.121c-0.624-0.066-1.543-0.164-2.043-0.217s-0.93-0.076-0.955-0.051c-0.025,0.026,0.124,0.469,0.331,0.987s0.355,0.996,0.33,1.062c-0.04,0.102-0.265,0.119-1.405,0.108-0.748-0.008-1.504-0.027-1.683-0.043z" stroke="#000" stroke-dasharray="none" stroke-miterlimit="4" stroke-width="0.8095783" fill="#ff7f00"/>
 <path id="path3862" d="M11.508,61.301c0.256-0.614,0.897-2.446,1.167-3.341,0.784-2.594,1.205-5.076,1.275-7.528,0.07-2.488-0.125-3.795-1.26-8.419-1.054-4.29-1.125-4.862-1.173-9.331-0.044-4.15,0.021-4.974,0.602-7.589,1.138-5.132,2.966-9.359,5.462-12.633,0.759-0.996,2.417-2.7258,3.276-3.4192,3.231-2.6087,8.217-4.4721,14.046-5.2505,1.836-0.2451,5.944-0.2695,7.61-0.0451,5.316,0.7163,9.328,2.5453,13.797,6.2908,3.195,2.678,6.698,6.652,9.333,10.59,0.553,0.826,0.701,1.104,0.633,1.185-0.048,0.059-0.518,0.365-1.043,0.679-3.319,1.984-6.063,4.149-9.33,7.36-0.962,0.946-1.79,1.72-1.838,1.72s-0.395-0.355-0.769-0.789c-1.399-1.62-4.651-4.489-6.412-5.659-1.884-1.25-4.585-2.514-6.476-3.03-0.642-0.175-2.732-0.399-3.717-0.398-1.012,0.002-2.482,0.146-3.759,0.37-1.898,0.333-3.889,1.135-5.137,2.069-0.643,0.482-2.326,2.225-2.957,3.063-0.993,1.319-2.241,3.599-2.927,5.345-0.184,0.468-0.384,0.96-0.445,1.093-0.161,0.353-0.674,2.155-0.768,2.695-0.044,0.255-0.169,0.936-0.279,1.515-0.336,1.779-0.402,2.838-0.324,5.181,0.106,3.2,0.093,5.347-0.037,5.87-0.165,0.664-0.941,2.661-1.464,3.766-1.562,3.3-3.872,6.351-6.235,8.236-0.686,0.548-0.967,0.682-0.851,0.405z" stroke="#000" stroke-dasharray="none" stroke-miterlimit="4" stroke-width="0.8095783" fill="#ffbf00"/>
 <path id="path3864" d="M20.642,45.357c-0.368-0.072-0.414-0.232-0.475-1.656l-0.058-1.348,0.226-0.148c0.294-0.193,1.216-0.213,1.332-0.03,0.043,0.067,0.078,0.33,0.078,0.584,0.001,0.254,0.058,0.87,0.128,1.367,0.069,0.497,0.107,0.951,0.085,1.009-0.022,0.059-0.179,0.145-0.349,0.192-0.306,0.085-0.635,0.096-0.967,0.03zm1.654-8.513c-0.328,0.208-1.337-0.114-1.475-0.472-0.048-0.125,0.515-2.211,0.705-2.608,0.172-0.362,0.966-0.307,1.474,0.104,0.276,0.221,0.307,0.013-0.273,1.864-0.18,0.576-0.374,1.076-0.431,1.112zm28.054-5.299c-0.661-0.661-0.753-0.788-0.752-1.032,0.006-0.839,1.008-1.765,1.718-1.587,0.108,0.027,0.53,0.394,0.938,0.817,0.818,0.845,0.861,0.957,0.589,1.543-0.184,0.397-0.517,0.72-0.916,0.886-0.611,0.255-0.749,0.2-1.577-0.627zm-24.87-1.542c-0.098,0.026-0.472-0.115-0.696-0.262-0.125-0.082-0.331-0.292-0.458-0.468-0.35-0.481-0.314-0.755,0.194-1.49,0.805-1.166,0.97-1.269,1.708-1.064,0.422,0.117,0.988,0.693,1.104,1.125l0.091,0.336-0.946,0.905c-0.521,0.498-0.969,0.912-0.997,0.918zm20.092-2.461c-0.924-0.611-1.046-0.783-0.965-1.369,0.097-0.71,0.751-1.404,1.324-1.404,0.367,0,1.942,1.051,2.016,1.345,0.14,0.559-0.238,1.375-0.791,1.712-0.557,0.337-0.679,0.316-1.584-0.284zm-14.329-2.198c-0.831-0.602-0.983-1.684-0.345-2.455,0.301-0.365,1.13-0.665,1.609-0.582,0.41,0.071,0.858,0.382,1.12,0.777,0.187,0.283,0.223,0.424,0.223,0.87,0,0.802-0.19,1.058-1.021,1.376-0.831,0.317-1.164,0.32-1.586,0.014zm8.598-0.333c-0.133-0.037-0.454-0.109-0.711-0.16-0.405-0.082-0.496-0.136-0.668-0.395-0.435-0.658-0.335-1.499,0.249-2.082,0.311-0.312,0.401-0.357,0.703-0.356,0.383,0.001,1.215,0.18,1.551,0.333,0.462,0.21,0.719,1.009,0.539,1.677-0.061,0.227-0.219,0.476-0.452,0.708-0.379,0.378-0.63,0.436-1.211,0.275z" stroke="#000" stroke-miterlimit="4" stroke-dasharray="none" stroke-width="0.80957829999999986" fill="#ffd400"/>
 <path id="path3858" d="M58.259,68.268c-2.015-0.214-3.044-0.362-3.129-0.448-0.177-0.179-2.134-5.421-3.499-9.373-0.654-1.893-1.845-5.524-2.723-8.298-0.253-0.801-0.502-1.5-0.554-1.552-0.051-0.053-0.731-0.192-1.51-0.309-2.09-0.315-4.485-0.811-5.465-1.133-1.051-0.344-1.821-0.738-1.821-0.932,0-0.268,1.237-1.271,2.267-1.84,1.029-0.567,2.385-0.96,4.25-1.23,1.261-0.182,4.066-0.374,4.369-0.297,0.207,0.051,0.377,0.503,0.763,2.032,0.346,1.367,0.575,3.486,0.575,5.31v0.94602l0.628,0.62298c0.712,0.707,1.202,1.028,1.669,1.091l0.322,0.044,1.645,4.938c1.863,5.599,3.427,10.362,3.427,10.435,0,0.051-0.711,0.047-1.214-0.007zm-29.509-9.231c-1.452-0.743-2.958-1.352-4.997-2.023-1.076-0.353-1.922-0.673-1.923-0.728-0.003-0.175,1.141-1.473,1.521-1.725,0.491-0.324,1.046-0.488,1.837-0.54,2.6-0.171,4.728,2.009,4.734,4.851,0.002,0.546-0.017,0.628-0.14,0.624-0.078-0.003-0.542-0.209-1.032-0.459z" stroke="#000" stroke-dasharray="none" stroke-miterlimit="4" stroke-width="0.8095783" fill="#000300"/>
</svg>
