<?xml version="1.0" encoding="UTF-8" standalone="no"?>
<!-- Created with Inkscape (http://www.inkscape.org/) -->

<svg
   xmlns:dc="http://purl.org/dc/elements/1.1/"
   xmlns:cc="http://creativecommons.org/ns#"
   xmlns:rdf="http://www.w3.org/1999/02/22-rdf-syntax-ns#"
   xmlns:svg="http://www.w3.org/2000/svg"
   xmlns="http://www.w3.org/2000/svg"
   xmlns:sodipodi="http://sodipodi.sourceforge.net/DTD/sodipodi-0.dtd"
   xmlns:inkscape="http://www.inkscape.org/namespaces/inkscape"
   width="951.10944"
   height="951.54083"
   id="svg2"
   version="1.1"
   inkscape:version="0.48.5 r10040"
   sodipodi:docname="New document 1">
  <defs
     id="defs4" />
  <sodipodi:namedview
     id="base"
     pagecolor="#ffffff"
     bordercolor="#666666"
     borderopacity="1.0"
     inkscape:pageopacity="0.0"
     inkscape:pageshadow="2"
     inkscape:zoom="0.79369974"
     inkscape:cx="715.95584"
     inkscape:cy="450.34088"
     inkscape:document-units="px"
     inkscape:current-layer="layer1"
     showgrid="false"
     fit-margin-top="0"
     fit-margin-left="0"
     fit-margin-right="0"
     fit-margin-bottom="0"
     inkscape:window-width="1680"
     inkscape:window-height="988"
     inkscape:window-x="-8"
     inkscape:window-y="-8"
     inkscape:window-maximized="1" />
  <metadata
     id="metadata7">
    <rdf:RDF>
      <cc:Work
         rdf:about="">
        <dc:format>image/svg+xml</dc:format>
        <dc:type
           rdf:resource="http://purl.org/dc/dcmitype/StillImage" />
        <dc:title></dc:title>
      </cc:Work>
    </rdf:RDF>
  </metadata>
  <g
     inkscape:label="Layer 1"
     inkscape:groupmode="layer"
     id="layer1"
     transform="translate(286.98327,60.551099)">
    <path
       d="M 172.94372,197.55347 C 353.86104,210.34963 420.22513,378.45784 420.93296,485.83196 C 420.93296,526.57315 60.32874,569.92185 -50.7225,496.36151 C -199.58661,454.45438 -115.56184,154.35419 172.94372,197.55347 z"
       id="path3866"
       style="fill:#ffd400;fill-opacity:1"
       inkscape:connector-curvature="0"
       sodipodi:nodetypes="cccc" />
    <path
       d="M 142.63951,885.74576 C 83.40052,878.88416 33.59722,864.83066 -15.78507,841.04126 C -64.27231,817.68316 -105.66048,788.20576 -144.39573,749.44253 C -169.49385,724.32628 -186.66979,703.26595 -205.66398,674.3183 C -246.17412,612.57977 -270.58833,544.68234 -280.06854,467.39462 C -282.62152,446.58138 -282.62152,385.20786 -280.06854,364.39462 C -268.19355,267.58343 -232.99561,185.54262 -171.52403,111.39462 C -159.09524,96.402808 -130.14422,67.530258 -114.45135,54.476628 C -38.07438,-9.055202 52.66186,-46.312402 151.13951,-54.577592 C 166.60494,-55.875602 210.67408,-55.875602 226.13951,-54.577592 C 314.97389,-47.121752 398.91606,-15.487062 470.23037,37.411218 C 504.40806,62.762938 541.63594,100.04886 566.86484,134.19619 C 616.90064,201.91996 646.72544,277.79765 657.34754,364.39462 C 658.75904,375.90173 659.12614,386.53165 659.12614,415.89462 C 659.12614,445.25759 658.75904,455.88751 657.34754,467.39462 C 645.47394,564.19434 610.04324,646.75865 548.77804,720.39462 C 536.1633,735.55651 507.25612,764.39796 491.73037,777.31266 C 422.98685,834.49476 346.21477,868.90486 255.63951,883.13106 C 239.82784,885.61446 237.19966,885.73156 192.63951,885.93686 C 167.06451,886.05476 144.56451,885.96886 142.63951,885.74576 z M -20.05521,499.32678 C -17.96231,498.7456 -16.02409,497.68155 -15.74806,496.96224 C -15.47204,496.24292 -15.94691,490.63047 -16.80334,484.49012 C -17.65977,478.34978 -18.36738,470.75383 -18.3758,467.61024 C -18.3838,464.46665 -18.81859,461.21962 -19.34106,460.39462 C -20.77665,458.12774 -32.16474,458.38112 -35.79651,460.76074 L -38.59443,462.59401 L -37.8764,479.24432 C -37.11798,496.83106 -36.549,498.81395 -32.00606,499.70257 C -27.90358,500.50504 -23.8379,500.37719 -20.05521,499.32678 z M -11.57515,394.54845 C -10.86821,394.0999 -8.46995,387.91929 -6.24568,380.81376 C 0.91246,357.9467 0.53538,360.5243 -2.87542,357.77573 C -9.1563,352.71433 -18.95605,352.02684 -21.08786,356.49806 C -23.42732,361.40482 -30.38349,387.1711 -29.78781,388.72343 C -28.0941,393.13715 -15.63246,397.1228 -11.57515,394.54845 z M 354.42163,336.84157 C 359.3518,334.78212 363.47429,330.7962 365.74365,325.89462 C 369.098,318.64955 368.57082,317.26754 358.46976,306.82619 C 353.42639,301.61292 348.21063,297.0741 346.87917,296.73992 C 338.11339,294.53985 325.72755,305.97961 325.66147,316.33693 C 325.64217,319.35836 326.77752,320.91724 334.9472,329.08693 C 345.17174,339.31147 346.88025,339.99179 354.42163,336.84157 z M 40.06258,298.70706 L 51.75023,287.51951 L 50.63242,283.3683 C 49.19861,278.04354 42.20772,270.92376 36.9908,269.47517 C 27.88066,266.94554 25.83313,268.22097 15.88951,282.61943 C 9.62143,291.69566 9.18083,295.0809 13.49287,301.03349 C 15.06221,303.19991 17.61082,305.80103 19.15644,306.81375 C 21.91984,308.62441 26.54475,310.36678 27.75722,310.05398 C 28.09696,309.96638 33.63438,304.86022 40.06258,298.70706 z M 295.48513,283.14609 C 302.3285,278.98809 306.989,268.90757 305.25751,262.00873 C 304.34536,258.37445 284.89676,245.39462 280.36341,245.39462 C 273.29365,245.39462 265.20802,253.96771 264.00588,262.73833 C 263.01436,269.97224 264.51615,272.10326 275.92584,279.65256 C 287.1143,287.05548 288.61097,287.3228 295.48513,283.14609 z M 118.51813,252.32081 C 128.78949,248.39855 131.13951,245.2334 131.13951,235.32159 C 131.13951,229.82015 130.68979,228.06899 128.38097,224.58013 C 125.15355,219.70317 119.61392,215.86085 114.54631,214.98433 C 108.62873,213.96079 98.39158,217.66051 94.66807,222.16836 C 86.79373,231.70138 88.67128,245.05871 98.9302,252.49024 C 104.15382,256.2742 108.25821,256.2387 118.51813,252.32081 z M 220.10338,244.98338 C 222.96746,242.11931 224.92341,239.05403 225.68014,236.24373 C 227.90339,227.9872 224.73156,218.12448 219.01545,215.52005 C 214.86799,213.63034 204.59645,211.42576 199.86319,211.4094 C 196.132,211.3965 195.02455,211.95694 191.17564,215.80586 C 183.97087,223.01063 182.73319,233.40449 188.11215,241.53265 C 190.22953,244.73221 191.35244,245.39499 196.35157,246.39583 C 199.53494,247.03315 203.48951,247.92802 205.13951,248.38442 C 212.31704,250.36978 215.42289,249.66387 220.10338,244.98338 z"
       id="path3864"
       style="fill:#132944;fill-opacity:1;stroke:#000000;stroke-width:10;stroke-miterlimit:4;stroke-opacity:1;stroke-dasharray:none"
       inkscape:connector-curvature="0" />
    <path
       d="M -144.84308,696.64462 C -141.66864,689.04908 -133.76268,666.42831 -130.41698,655.36823 C -120.72528,623.32977 -115.53327,592.66902 -114.67309,562.39462 C -113.79956,531.65071 -116.21507,515.50882 -130.23588,458.39462 C -143.24639,405.3959 -144.13318,398.33894 -144.72076,343.12597 C -145.26624,291.86908 -144.4599,281.69364 -137.29307,249.39462 C -123.22927,186.0127 -100.64827,133.79005 -69.81725,93.344598 C -60.44179,81.045468 -39.97128,59.676138 -29.36049,51.111458 C 10.56039,18.888668 72.13812,-4.129062 144.13951,-13.742742 C 166.82177,-16.771302 217.56265,-17.072122 238.13951,-14.300022 C 303.81289,-5.452572 353.35885,17.138598 408.55721,63.404318 C 448.03003,96.489328 491.29742,145.57907 523.85248,194.2145 C 530.67604,204.40851 532.51131,207.84416 531.67289,208.8544 C 531.07035,209.58041 525.26901,213.34856 518.78101,217.22807 C 477.78662,241.74069 443.88602,268.48484 403.53615,308.14462 C 391.64529,319.83212 381.42877,329.39462 380.83277,329.39462 C 380.23677,329.39462 375.9616,325.00712 371.33241,319.64462 C 354.06446,299.64129 313.89379,264.18859 292.13951,249.75278 C 268.86124,234.30567 235.49532,218.69162 212.13951,212.31567 C 204.21418,210.15212 178.38575,207.38943 166.2289,207.40494 C 153.72636,207.42084 135.56546,209.20666 119.80477,211.96987 C 96.35845,216.08055 71.759,225.98878 56.35032,237.52823 C 48.40148,243.48106 27.61489,265.01059 19.821,275.36316 C 7.55865,291.65117 -7.86406,319.81639 -16.3365,341.39462 C -18.60398,347.16962 -21.0762,353.24462 -21.83031,354.89462 C -23.8199,359.24786 -30.16131,381.50001 -31.3162,388.18083 C -31.85944,391.32341 -33.40994,399.74462 -34.76174,406.89462 C -38.91512,428.86279 -39.73443,441.94066 -38.77123,470.89462 C -37.45682,510.40582 -37.62256,536.93498 -39.22415,543.39462 C -41.25706,551.59387 -50.846,576.25985 -57.30611,589.9075 C -76.6031,630.6744 -105.13009,668.35795 -134.32257,691.64462 C -142.80223,698.40879 -146.26899,700.05641 -144.84308,696.64462 z"
       id="path3862"
       style="fill:#ffbf00;fill-opacity:1;stroke:#000000;stroke-width:10;stroke-miterlimit:4;stroke-opacity:1;stroke-dasharray:none"
       inkscape:connector-curvature="0"
       sodipodi:nodetypes="ssssssssssssssssssssssssssssssss" />
    <path
       sodipodi:nodetypes="cssssscssssssssssssssssssssscscsscssssscsssccssccc"
       d="M 365.13951,805.70276 C 354.97281,804.79866 329.99514,801.03396 319.13951,798.76946 C 275.28046,789.62036 225.50963,771.43556 156.63951,739.39668 C 134.13629,728.92803 83.37033,703.53663 81.77769,701.95336 C 80.66408,700.8463 80.61851,699.09379 81.52769,692.33808 C 82.13919,687.79427 82.63411,682.23566 82.62751,679.98562 L 82.61551,675.89462 L 68.87751,669.17029 C 61.32161,665.47191 49.73951,660.14594 43.13951,657.33481 C 31.49601,652.37551 -14.84056,636.39462 -17.57653,636.39462 C -18.32301,636.39462 -21.60939,639.14145 -24.8796,642.49868 C -30.73368,648.50854 -30.89289,648.59349 -35.19651,648.00362 C -49.20753,646.08319 -49.49476,641.00513 -37.40859,608.89462 C -33.6823,598.99462 -30.06366,589.09462 -29.36716,586.89462 C -28.67067,584.69462 -26.33408,578.21172 -24.17474,572.48818 C -19.0178,558.81918 -16.70786,548.63484 -15.30274,533.3723 C -14.00549,519.28138 -14.54734,491.30464 -16.36754,478.39462 C -17.95132,467.16146 -17.99347,439.06176 -16.44254,428.39462 C -14.46343,414.78247 -11.44219,400.51354 -8.71421,391.89462 C 9.28494,335.02728 18.10249,319.72544 49.13951,291.49612 C 65.11224,276.96833 89.82944,263.35363 117.63951,253.76502 C 139.38677,246.26681 146.34551,244.50643 157.13951,243.77259 C 166.24214,243.15374 184.82462,244.55752 191.50341,246.36856 C 193.50326,246.91085 200.76451,248.54749 207.63951,250.00555 C 229.26092,254.59105 251.43847,264.15482 270.34597,277.04686 C 275.73242,280.7196 282.16451,285.08425 284.63951,286.74608 C 302.53968,298.76508 344.54538,338.26887 359.76245,357.39462 C 368.04248,367.80146 378.66596,382.90634 383.53026,391.18863 C 386.51011,396.2623 386.63937,396.94902 386.63624,407.68863 C 386.63424,413.85192 387.14709,427.18592 387.77544,437.31973 L 388.91791,455.74485 L 385.00595,459.31973 C 382.85437,461.28592 380.24067,463.4609 376.76766,465.03227 L 369.60651,468.27234 L 374.16495,482.39462 C 376.04101,488.20675 380.21476,502.11962 383.19247,513.39462 C 386.17018,524.66962 389.94525,538.84462 391.58151,544.89462 C 393.21777,550.94462 394.56547,557.46962 394.57638,559.39462 C 394.60768,564.91237 390.96624,579.91648 387.98189,586.5665 L 385.2609,592.62967 L 405.92518,654.76215 C 436.77741,747.52729 447.63951,780.84466 447.63951,782.71266 C 447.63951,783.63776 447.30201,784.39376 446.88951,784.39276 C 446.47701,784.39176 439.83951,783.71896 432.13951,782.89776 C 424.43951,782.07646 413.0842,780.87006 406.90549,780.21696 C 400.72678,779.56376 395.41849,779.28226 395.1093,779.59146 C 394.80011,779.90066 396.64042,785.38456 399.19887,791.77786 C 401.75733,798.17126 403.59223,804.07546 403.27644,804.89836 C 402.79463,806.15396 400.00324,806.36756 385.92089,806.22656 C 376.69113,806.13456 367.33951,805.89836 365.13951,805.70276 z"
       id="path3860"
       style="fill:#ff7f00;fill-opacity:1;stroke:#000000;stroke-width:10;stroke-miterlimit:4;stroke-opacity:1;stroke-dasharray:none"
       inkscape:connector-curvature="0" />
    <path
       d="M 432.63951,782.70116 C 407.75349,780.04586 395.04261,778.22436 393.99105,777.16256 C 391.80213,774.95236 367.63022,710.20283 350.77325,661.39462 C 342.69191,637.99563 327.98016,593.16031 317.14008,558.89462 C 314.00818,548.99462 310.92681,540.36444 310.29261,539.71644 C 309.6584,539.06845 301.26451,537.35147 291.63951,535.90095 C 265.82852,532.01113 236.23578,525.87995 224.1265,521.91325 C 211.15132,517.66289 201.63951,512.78956 201.63951,510.39214 C 201.63951,507.09105 216.91883,494.69434 229.63951,487.67465 C 242.34852,480.66139 259.10952,475.80792 282.13951,472.47225 C 297.72029,470.21553 332.35949,467.85654 336.10658,468.797 C 338.6649,469.4391 340.76078,475.02031 345.53365,493.90075 C 349.80371,510.79216 352.63951,536.96602 352.63951,559.48635 L 352.63951,571.17829 L 360.38951,578.87564 C 369.18839,587.61476 375.23724,591.56832 381.00969,592.35312 L 384.9926,592.89462 L 405.2954,653.89462 C 428.31239,723.04944 447.63951,781.87856 447.63951,782.78426 C 447.63951,783.41226 438.84791,783.36356 432.63951,782.70126 z M 68.13951,668.66763 C 50.20006,659.49574 31.60539,651.97223 6.41257,643.69254 C -6.87054,639.32701 -17.32452,635.36772 -17.33743,634.69758 C -17.37913,632.53281 -3.23934,616.50285 1.45411,613.39403 C 7.51726,609.37797 14.37099,607.36041 24.13951,606.71604 C 56.25758,604.59742 82.54348,631.53322 82.62215,666.64462 C 82.63725,673.38491 82.41151,674.38791 80.88951,674.3431 C 79.92701,674.3148 74.18951,671.7608 68.13951,668.66763 z"
       id="path3858"
       style="fill:#000300;stroke:#000000;stroke-width:10;stroke-miterlimit:4;stroke-opacity:1;stroke-dasharray:none"
       inkscape:connector-curvature="0" />
  </g>
</svg>
