<?xml version="1.0" encoding="UTF-8" standalone="no"?>
<!-- Created with Inkscape (http://www.inkscape.org/) -->

<svg
   xmlns:dc="http://purl.org/dc/elements/1.1/"
   xmlns:cc="http://creativecommons.org/ns#"
   xmlns:rdf="http://www.w3.org/1999/02/22-rdf-syntax-ns#"
   xmlns:svg="http://www.w3.org/2000/svg"
   xmlns="http://www.w3.org/2000/svg"
   xmlns:sodipodi="http://sodipodi.sourceforge.net/DTD/sodipodi-0.dtd"
   xmlns:inkscape="http://www.inkscape.org/namespaces/inkscape"
   version="1.1"
   width="942"
   height="942.00006"
   id="svg3837"
   inkscape:version="0.48.5 r10040"
   sodipodi:docname="logo.svg">
  <sodipodi:namedview
     pagecolor="#ffffff"
     bordercolor="#666666"
     borderopacity="1"
     objecttolerance="10"
     gridtolerance="10"
     guidetolerance="10"
     inkscape:pageopacity="0"
     inkscape:pageshadow="2"
     inkscape:window-width="640"
     inkscape:window-height="480"
     id="namedview13"
     showgrid="false"
     inkscape:zoom="0.30631301"
     inkscape:cx="471"
     inkscape:cy="471.00003"
     inkscape:window-x="0"
     inkscape:window-y="0"
     inkscape:window-maximized="0"
     inkscape:current-layer="svg3837" />
  <defs
     id="defs3839" />
  <metadata
     id="metadata3842">
    <rdf:RDF>
      <cc:Work
         rdf:about="">
        <dc:format>image/svg+xml</dc:format>
        <dc:type
           rdf:resource="http://purl.org/dc/dcmitype/StillImage" />
        <dc:title />
      </cc:Work>
    </rdf:RDF>
  </metadata>
  <g
     transform="translate(129.57143,-167.07647)"
     id="layer1">
    <g
       transform="translate(-310,-25.714286)"
       id="g3856">
      <path
         d="M 605.92857,1134.1659 C 604.27857,1133.9449 597.07857,1133.0704 589.92857,1132.2228 C 542.89088,1126.6463 492.80415,1111.6488 446.88515,1089.3914 C 396.19098,1064.8194 358.45514,1037.9333 318.39062,997.84137 C 278.08817,957.51141 250.96254,919.32572 226.36286,868.29076 C 195.10294,803.43835 180.43861,738.29793 180.43861,664.29076 C 180.43861,620.3813 184.60771,586.35818 194.89802,546.29076 C 202.88953,515.17418 212.28112,489.50499 226.36286,460.29076 C 250.94118,409.30011 278.322,370.74281 318.36107,330.74015 C 358.57149,290.5663 396.24862,263.72898 446.88515,239.1928 C 512.52141,207.38842 576.8386,192.8008 651.42857,192.8008 C 726.01854,192.8008 790.33573,207.38842 855.97199,239.1928 C 906.6284,263.73861 944.35059,290.61156 984.47918,330.74015 C 1024.7218,370.98276 1051.8711,409.20698 1076.4943,460.29076 C 1107.7542,525.14317 1122.4185,590.28359 1122.4185,664.29076 C 1122.4185,708.20022 1118.2494,742.22334 1107.9591,782.29076 C 1099.9676,813.40734 1090.576,839.07653 1076.4943,868.29076 C 1051.8946,919.32572 1024.769,957.51141 984.46652,997.84137 C 944.402,1037.9333 906.66616,1064.8194 855.97199,1089.3914 C 817.79697,1107.8952 782.06954,1119.7952 740.92857,1127.7096 C 709.29562,1133.795 705.80279,1134.0653 655.42857,1134.3266 C 629.85357,1134.4593 607.57857,1134.3866 605.92857,1134.1659 z"
         id="path3866"
         style="fill:#7bf3f3" />
      <path
         d="M 605.42857,1134.1419 C 546.18958,1127.2803 496.38628,1113.2268 447.00399,1089.4374 C 398.51675,1066.0793 357.12858,1036.6019 318.39333,997.83867 C 293.29521,972.72242 276.11927,951.66209 257.12508,922.71444 C 216.61494,860.97591 192.20073,793.07848 182.72052,715.79076 C 180.16754,694.97752 180.16754,633.604 182.72052,612.79076 C 194.59551,515.97957 229.79345,433.93876 291.26503,359.79076 C 303.69382,344.79895 332.64484,315.9264 348.33771,302.87277 C 424.71468,239.34094 515.45092,202.08374 613.92857,193.81855 C 629.394,192.52054 673.46314,192.52054 688.92857,193.81855 C 777.76295,201.27439 861.70512,232.90908 933.01943,285.80736 C 967.19712,311.15908 1004.425,348.445 1029.6539,382.59233 C 1079.6897,450.3161 1109.5145,526.19379 1120.1366,612.79076 C 1121.5481,624.29787 1121.9152,634.92779 1121.9152,664.29076 C 1121.9152,693.65373 1121.5481,704.28365 1120.1366,715.79076 C 1108.263,812.59048 1072.8323,895.15479 1011.5671,968.79076 C 998.95236,983.95265 970.04518,1012.7941 954.51943,1025.7088 C 885.77591,1082.8909 809.00383,1117.301 718.42857,1131.5272 C 702.6169,1134.0106 699.98872,1134.1277 655.42857,1134.333 C 629.85357,1134.4509 607.35357,1134.365 605.42857,1134.1419 z M 442.73385,747.72292 C 444.82675,747.14174 446.76497,746.07769 447.041,745.35838 C 447.31702,744.63906 446.84215,739.02661 445.98572,732.88626 C 445.12929,726.74592 444.42168,719.14997 444.41326,716.00638 C 444.40526,712.86279 443.97047,709.61576 443.448,708.79076 C 442.01241,706.52388 430.62432,706.77726 426.99255,709.15688 L 424.19463,710.99015 L 424.91266,727.64046 C 425.67108,745.2272 426.24006,747.21009 430.783,748.09871 C 434.88548,748.90118 438.95116,748.77333 442.73385,747.72292 z M 451.21391,642.94459 C 451.92085,642.49604 454.31911,636.31543 456.54338,629.2099 C 463.70152,606.34284 463.32444,608.92044 459.91364,606.17187 C 453.63276,601.11047 443.83301,600.42298 441.7012,604.8942 C 439.36174,609.80096 432.40557,635.56724 433.00125,637.11957 C 434.69496,641.53329 447.1566,645.51894 451.21391,642.94459 z M 817.21069,585.23771 C 822.14086,583.17826 826.26335,579.19234 828.53271,574.29076 C 831.88706,567.04569 831.35988,565.66368 821.25882,555.22233 C 816.21545,550.00906 810.99969,545.47024 809.66823,545.13606 C 800.90245,542.93599 788.51661,554.37575 788.45053,564.73307 C 788.43123,567.7545 789.56658,569.31338 797.73626,577.48307 C 807.9608,587.70761 809.66931,588.38793 817.21069,585.23771 z M 502.85164,547.1032 L 514.53929,535.91565 L 513.42148,531.76444 C 511.98767,526.43968 504.99678,519.3199 499.77986,517.87131 C 490.66972,515.34168 488.62219,516.61711 478.67857,531.01557 C 472.41049,540.0918 471.96989,543.47704 476.28193,549.42963 C 477.85127,551.59605 480.39988,554.19717 481.9455,555.20989 C 484.7089,557.02055 489.33381,558.76292 490.54628,558.45012 C 490.88602,558.36252 496.42344,553.25636 502.85164,547.1032 z M 758.27419,531.54223 C 765.11756,527.38423 769.77806,517.30371 768.04657,510.40487 C 767.13442,506.77059 747.68582,493.79076 743.15247,493.79076 C 736.08271,493.79076 727.99708,502.36385 726.79494,511.13447 C 725.80342,518.36838 727.30521,520.4994 738.7149,528.0487 C 749.90336,535.45162 751.40003,535.71894 758.27419,531.54223 z M 581.30719,500.71695 C 591.57855,496.79469 593.92857,493.62954 593.92857,483.71773 C 593.92857,478.21629 593.47885,476.46513 591.17003,472.97627 C 587.94261,468.09931 582.40298,464.25699 577.33537,463.38047 C 571.41779,462.35693 561.18064,466.05665 557.45713,470.5645 C 549.58279,480.09752 551.46034,493.45485 561.71926,500.88638 C 566.94288,504.67034 571.04727,504.63484 581.30719,500.71695 z M 682.89244,493.37952 C 685.75652,490.51545 687.71247,487.45017 688.4692,484.63987 C 690.69245,476.38334 687.52062,466.52062 681.80451,463.91619 C 677.65705,462.02648 667.38551,459.8219 662.65225,459.80554 C 658.92106,459.79264 657.81361,460.35308 653.9647,464.202 C 646.75993,471.40677 645.52225,481.80063 650.90121,489.92879 C 653.01859,493.12835 654.1415,493.79113 659.14063,494.79197 C 662.324,495.42929 666.27857,496.32416 667.92857,496.78056 C 675.1061,498.76592 678.21195,498.06001 682.89244,493.37952 z"
         id="path3864"
         style="fill:#00ff03;fill-opacity:1" />
      <path
         d="M 827.92857,1054.0989 C 817.76187,1053.1948 792.7842,1049.4301 781.92857,1047.1656 C 738.06952,1038.0165 688.29869,1019.8317 619.42857,987.79282 C 596.92535,977.32417 546.15939,951.93277 544.56675,950.3495 C 543.45314,949.24244 543.40757,947.48993 544.31675,940.73422 C 544.92825,936.19041 545.42317,930.6318 545.41657,928.38176 L 545.40457,924.29076 L 531.66657,917.56643 C 524.11067,913.86805 512.52857,908.54208 505.92857,905.73095 C 494.28507,900.77165 447.9485,884.79076 445.21253,884.79076 C 444.46605,884.79076 441.17967,887.53759 437.90946,890.89482 C 432.05538,896.90468 431.89617,896.98963 427.59255,896.39976 C 413.58153,894.47933 413.2943,889.40127 425.38047,857.29076 C 429.10676,847.39076 432.7254,837.49076 433.4219,835.29076 C 434.11839,833.09076 436.45498,826.60786 438.61432,820.88432 C 443.77126,807.21532 446.0812,797.03098 447.48632,781.76844 C 448.78357,767.67752 448.24172,739.70078 446.42152,726.79076 C 444.83774,715.5576 444.79559,687.4579 446.34652,676.79076 C 448.32563,663.17861 451.34687,648.90968 454.07485,640.29076 C 472.074,583.42342 480.89155,568.12158 511.92857,539.89226 C 527.9013,525.36447 552.6185,511.74977 580.42857,502.16116 C 602.17583,494.66295 609.13457,492.90257 619.92857,492.16873 C 629.0312,491.54988 647.61368,492.95366 654.29247,494.7647 C 656.29232,495.30699 663.55357,496.94363 670.42857,498.40169 C 692.04998,502.98719 714.22753,512.55096 733.13503,525.443 C 738.52148,529.11574 744.95357,533.48039 747.42857,535.14222 C 765.32874,547.16122 807.33444,586.66501 822.55151,605.79076 C 830.83154,616.1976 841.45502,631.30248 846.31932,639.58477 C 849.29917,644.65844 849.42843,645.34516 849.4253,656.08477 C 849.4233,662.24806 849.93615,675.58206 850.5645,685.71587 L 851.70697,704.14099 L 847.79501,707.71587 C 845.64343,709.68206 841.51098,713.31576 838.61178,715.79076 L 833.34051,720.29076 L 836.95401,730.79076 C 838.94143,736.56576 843.00382,750.51576 845.98153,761.79076 C 848.95924,773.06576 852.73431,787.24076 854.37057,793.29076 C 856.00683,799.34076 857.35453,805.86576 857.36544,807.79076 C 857.39674,813.30851 853.7553,828.31262 850.77095,834.96264 L 848.04996,841.02581 L 868.71424,903.15829 C 899.56647,995.92343 910.42857,1029.2408 910.42857,1031.1088 C 910.42857,1032.0339 910.09107,1032.7899 909.67857,1032.7889 C 909.26607,1032.7879 902.62857,1032.1151 894.92857,1031.2939 C 887.22857,1030.4726 875.87326,1029.2662 869.69455,1028.6131 C 863.51584,1027.9599 858.20755,1027.6784 857.89836,1027.9876 C 857.58917,1028.2968 859.42948,1033.7807 861.98793,1040.174 C 864.54639,1046.5674 866.38129,1052.4716 866.0655,1053.2945 C 865.58369,1054.5501 862.7923,1054.7637 848.70995,1054.6227 C 839.48019,1054.5307 830.12857,1054.2945 827.92857,1054.0989 z M 317.94598,945.04076 C 321.12042,937.44522 329.02638,914.82445 332.37208,903.76437 C 342.06378,871.72591 347.25579,841.06516 348.11597,810.79076 C 348.9895,780.04685 346.57399,763.90496 332.55318,706.79076 C 319.54267,653.79204 318.65588,646.73508 318.0683,591.52211 C 317.52282,540.26522 318.32916,530.08978 325.49599,497.79076 C 339.55979,434.40884 362.14079,382.18619 392.97181,341.74074 C 402.34727,329.44161 422.81778,308.07228 433.42857,299.5076 C 473.34945,267.28481 534.92718,244.26708 606.92857,234.6534 C 629.61083,231.62484 680.35171,231.32402 700.92857,234.09612 C 766.60195,242.94357 816.14791,265.53474 871.34627,311.80046 C 910.81909,344.88547 954.08648,393.97521 986.64154,442.61064 C 993.4651,452.80465 995.30037,456.2403 994.46195,457.25054 C 993.85941,457.97655 988.05807,461.7447 981.57007,465.62421 C 940.57568,490.13683 906.67508,516.88098 866.32521,556.54076 C 854.43435,568.22826 844.21783,577.79076 843.62183,577.79076 C 843.02583,577.79076 838.75066,573.40326 834.12147,568.04076 C 816.85352,548.03743 776.68285,512.58473 754.92857,498.14892 C 731.6503,482.70181 698.28438,467.08776 674.92857,460.71181 C 667.00324,458.54826 641.17481,455.78557 629.01796,455.80108 C 616.51542,455.81698 598.35452,457.6028 582.59383,460.36601 C 559.14751,464.47669 534.54806,474.38492 519.13938,485.92437 C 511.19054,491.8772 490.40395,513.40673 482.61006,523.7593 C 470.34771,540.04731 454.925,568.21253 446.45256,589.79076 C 444.18508,595.56576 441.71286,601.64076 440.95875,603.29076 C 438.96916,607.644 432.62775,629.89615 431.47286,636.57697 C 430.92962,639.71955 429.37912,648.14076 428.02732,655.29076 C 423.87394,677.25893 423.05463,690.3368 424.01783,719.29076 C 425.33224,758.80196 425.1665,785.33112 423.56491,791.79076 C 421.532,799.99001 411.94306,824.65599 405.48295,838.30364 C 386.18596,879.07054 357.65897,916.75409 328.46649,940.04076 C 319.98683,946.80493 316.52007,948.45255 317.94598,945.04076 z"
         id="path3862"
         style="fill:#00006d" />
      <path
         d="M 827.92857,1054.0989 C 817.76187,1053.1948 792.7842,1049.4301 781.92857,1047.1656 C 738.06952,1038.0165 688.29869,1019.8317 619.42857,987.79282 C 596.92535,977.32417 546.15939,951.93277 544.56675,950.3495 C 543.45314,949.24244 543.40757,947.48993 544.31675,940.73422 C 544.92825,936.19041 545.42317,930.6318 545.41657,928.38176 L 545.40457,924.29076 L 531.66657,917.56643 C 524.11067,913.86805 512.52857,908.54208 505.92857,905.73095 C 494.28507,900.77165 447.9485,884.79076 445.21253,884.79076 C 444.46605,884.79076 441.17967,887.53759 437.90946,890.89482 C 432.05538,896.90468 431.89617,896.98963 427.59255,896.39976 C 413.58153,894.47933 413.2943,889.40127 425.38047,857.29076 C 429.10676,847.39076 432.7254,837.49076 433.4219,835.29076 C 434.11839,833.09076 436.45498,826.60786 438.61432,820.88432 C 443.77126,807.21532 446.0812,797.03098 447.48632,781.76844 C 448.78357,767.67752 448.24172,739.70078 446.42152,726.79076 C 444.83774,715.5576 444.79559,687.4579 446.34652,676.79076 C 448.32563,663.17861 451.34687,648.90968 454.07485,640.29076 C 472.074,583.42342 480.89155,568.12158 511.92857,539.89226 C 527.9013,525.36447 552.6185,511.74977 580.42857,502.16116 C 602.17583,494.66295 609.13457,492.90257 619.92857,492.16873 C 629.0312,491.54988 647.61368,492.95366 654.29247,494.7647 C 656.29232,495.30699 663.55357,496.94363 670.42857,498.40169 C 692.04998,502.98719 714.22753,512.55096 733.13503,525.443 C 738.52148,529.11574 744.95357,533.48039 747.42857,535.14222 C 765.32874,547.16122 807.33444,586.66501 822.55151,605.79076 C 830.83154,616.1976 841.45502,631.30248 846.31932,639.58477 C 849.29917,644.65844 849.42843,645.34516 849.4253,656.08477 C 849.4233,662.24806 849.93615,675.58206 850.5645,685.71587 L 851.70697,704.14099 L 847.79501,707.71587 C 845.64343,709.68206 841.51098,713.31576 838.61178,715.79076 L 833.34051,720.29076 L 836.95401,730.79076 C 838.94143,736.56576 843.00382,750.51576 845.98153,761.79076 C 848.95924,773.06576 852.73431,787.24076 854.37057,793.29076 C 856.00683,799.34076 857.35453,805.86576 857.36544,807.79076 C 857.39674,813.30851 853.7553,828.31262 850.77095,834.96264 L 848.04996,841.02581 L 868.71424,903.15829 C 899.56647,995.92343 910.42857,1029.2408 910.42857,1031.1088 C 910.42857,1032.0339 910.09107,1032.7899 909.67857,1032.7889 C 909.26607,1032.7879 902.62857,1032.1151 894.92857,1031.2939 C 887.22857,1030.4726 875.87326,1029.2662 869.69455,1028.6131 C 863.51584,1027.9599 858.20755,1027.6784 857.89836,1027.9876 C 857.58917,1028.2968 859.42948,1033.7807 861.98793,1040.174 C 864.54639,1046.5674 866.38129,1052.4716 866.0655,1053.2945 C 865.58369,1054.5501 862.7923,1054.7637 848.70995,1054.6227 C 839.48019,1054.5307 830.12857,1054.2945 827.92857,1054.0989 z"
         id="path3860"
         style="fill:#006c00" />
      <path
         d="M 895.42857,1031.0973 C 870.54255,1028.442 857.83167,1026.6205 856.78011,1025.5587 C 854.59119,1023.3485 830.41928,958.59897 813.56231,909.79076 C 805.48097,886.39177 790.76922,841.55645 779.92914,807.29076 C 776.79724,797.39076 773.71587,788.76058 773.08167,788.11258 C 772.44746,787.46459 764.05357,785.74761 754.42857,784.29709 C 728.61758,780.40727 699.02484,774.27609 686.91556,770.30939 C 673.94038,766.05903 664.42857,761.1857 664.42857,758.78828 C 664.42857,755.48719 679.70789,743.09048 692.42857,736.07079 C 705.13758,729.05753 721.89858,724.20406 744.92857,720.86839 C 760.50935,718.61167 795.14855,716.25268 798.89564,717.19314 C 801.45396,717.83524 803.54984,723.41645 808.32271,742.29689 C 812.59277,759.1883 815.42857,785.36216 815.42857,807.88249 L 815.42857,819.57443 L 823.17857,827.27178 C 831.97745,836.0109 838.0263,839.96446 843.79875,840.74926 L 847.78166,841.29076 L 868.08446,902.29076 C 891.10145,971.44558 910.42857,1030.2747 910.42857,1031.1804 C 910.42857,1031.8084 901.63697,1031.7597 895.42857,1031.0974 z M 530.92857,917.06377 C 512.98912,907.89188 494.39445,900.36837 469.20163,892.08868 C 455.91852,887.72315 445.46454,883.76386 445.45163,883.09372 C 445.40993,880.92895 459.54972,864.89899 464.24317,861.79017 C 470.30632,857.77411 477.16005,855.75655 486.92857,855.11218 C 519.04664,852.99356 545.33254,879.92936 545.41121,915.04076 C 545.42631,921.78105 545.20057,922.78405 543.67857,922.73924 C 542.71607,922.71094 536.97857,920.15694 530.92857,917.06377 z"
         id="path3858"
         style="fill:#000300" />
    </g>
  </g>
</svg>
