<?xml version="1.0" encoding="UTF-8" standalone="no"?>
<!-- Created with Inkscape (http://www.inkscape.org/) -->

<svg
   xmlns:dc="http://purl.org/dc/elements/1.1/"
   xmlns:cc="http://creativecommons.org/ns#"
   xmlns:rdf="http://www.w3.org/1999/02/22-rdf-syntax-ns#"
   xmlns:svg="http://www.w3.org/2000/svg"
   xmlns="http://www.w3.org/2000/svg"
   xmlns:sodipodi="http://sodipodi.sourceforge.net/DTD/sodipodi-0.dtd"
   xmlns:inkscape="http://www.inkscape.org/namespaces/inkscape"
   id="svg2"
   viewBox="0 0 77.000002 77.034656"
   version="1.1"
   inkscape:version="0.48.5 r10040"
   width="100%"
   height="100%"
   sodipodi:docname="logo.svg">
  <defs
     id="defs12" />
  <sodipodi:namedview
     pagecolor="#ffffff"
     bordercolor="#666666"
     borderopacity="1"
     objecttolerance="10"
     gridtolerance="10"
     guidetolerance="10"
     inkscape:pageopacity="0"
     inkscape:pageshadow="2"
     inkscape:window-width="1680"
     inkscape:window-height="988"
     id="namedview10"
     showgrid="false"
     fit-margin-top="0"
     fit-margin-left="0"
     fit-margin-right="0"
     fit-margin-bottom="0"
     inkscape:zoom="8.9989767"
     inkscape:cx="37.392368"
     inkscape:cy="39.495165"
     inkscape:window-x="-8"
     inkscape:window-y="-8"
     inkscape:window-maximized="1"
     inkscape:current-layer="svg2" />
  <metadata
     id="metadata7">
    <rdf:RDF>
      <cc:Work
         rdf:about="">
        <dc:format>image/svg+xml</dc:format>
        <dc:type
           rdf:resource="http://purl.org/dc/dcmitype/StillImage" />
        <dc:title />
      </cc:Work>
    </rdf:RDF>
  </metadata>
  <g
     id="layer1"
     transform="matrix(0.08095783,0,0,0.08095783,23.233477,4.9025228)">
    <path
       id="path3866"
       d="M 172.94,197.55 C 353.86,210.35 420.23,378.46 420.93,485.83 C 420.93,526.57 60.33,569.92 -50.72,496.36 C -199.59,454.45 -115.558,154.35 172.94,197.55 z"
       inkscape:connector-curvature="0"
       style="fill:#ffd400" />
    <path
       id="path3864"
       d="M 142.64,885.75 C 83.401,878.88 33.6,864.83 -15.78,841.04 C -64.267,817.68 -105.655,788.21 -144.4,749.44 C -169.49,724.33 -186.67,703.27 -205.66,674.32 C -246.17,612.58 -270.59,544.68 -280.07,467.39 C -282.62,446.58 -282.62,385.21 -280.07,364.39 C -268.19,267.58 -233,185.54 -171.52,111.39 C -159.1,96.403 -130.14,67.53 -114.45,54.477 C -38.074,-9.055 52.66,-46.313 151.14,-54.583 C 166.6,-55.881 210.67,-55.881 226.14,-54.583 C 314.97,-47.127 398.92,-15.492 470.23,37.406 C 504.41,62.758 541.64,100.045 566.86,134.195 C 616.9,201.915 646.73,277.795 657.35,364.385 C 658.76,375.895 659.13,386.525 659.13,415.885 C 659.13,445.255 658.76,455.885 657.35,467.385 C 645.47,564.185 610.04,646.755 548.78,720.385 C 536.16,735.555 507.26,764.395 491.73,777.305 C 422.99,834.485 346.21,868.895 255.64,883.125 C 239.83,885.605 237.2,885.725 192.64,885.935 C 167.06,886.045 144.56,885.965 142.64,885.745 z M -20.06,499.33 C -17.967,498.75 -16.029,497.68 -15.753,496.96 C -15.477,496.24 -15.952,490.63 -16.808,484.49 C -17.665,478.35 -18.372,470.75 -18.381,467.61 C -18.389,464.47 -18.824,461.22 -19.346,460.39 C -20.782,458.13 -32.17,458.38 -35.802,460.76 L -38.599,462.59 L -37.881,479.24 C -37.123,496.83 -36.554,498.81 -32.011,499.7 C -27.909,500.51 -23.843,500.38 -20.06,499.33 z M -11.58,394.55 C -10.873,394.1 -8.475,387.92 -6.2507,380.81 C 0.9075,357.95 0.5304,360.52 -2.8804,357.78 C -9.1613,352.71 -18.9614,352.03 -21.0934,356.5 C -23.4324,361.4 -30.3884,387.17 -29.7934,388.72 C -28.0994,393.14 -15.6374,397.12 -11.5804,394.55 z M 354.42,336.84 C 359.35,334.78 363.47,330.8 365.74,325.89 C 369.1,318.65 368.57,317.27 358.47,306.83 C 353.43,301.61 348.21,297.07 346.88,296.74 C 338.11,294.54 325.73,305.98 325.66,316.34 C 325.64,319.36 326.78,320.92 334.95,329.09 C 345.17,339.31 346.88,339.99 354.42,336.84 z M 40.06,298.71 L 51.747,287.52 L 50.629,283.37 C 49.196,278.04 42.205,270.92 36.988,269.48 C 27.878,266.95 25.83,268.22 15.887,282.62 C 9.6184,291.7 9.1778,295.08 13.49,301.03 C 15.059,303.2 17.608,305.8 19.153,306.81 C 21.917,308.62 26.542,310.37 27.754,310.05 C 28.094,309.97 33.631,304.86 40.06,298.71 z M 295.49,283.15 C 302.33,278.99 306.99,268.91 305.26,262.01 C 304.35,258.37 284.9,245.39 280.36,245.39 C 273.29,245.39 265.21,253.97 264.01,262.74 C 263.01,269.97 264.52,272.1 275.93,279.65 C 287.11,287.06 288.61,287.32 295.49,283.15 z M 118.52,252.32 C 128.79,248.4 131.14,245.23 131.14,235.32 C 131.14,229.82 130.69,228.07 128.38,224.58 C 125.15,219.7 119.61,215.86 114.55,214.98 C 108.63,213.96 98.392,217.66 94.668,222.17 C 86.794,231.7 88.671,245.06 98.93,252.49 C 104.15,256.27 108.26,256.24 118.52,252.32 z M 220.1,244.98 C 222.97,242.12 224.92,239.05 225.68,236.24 C 227.9,227.99 224.73,218.12 219.02,215.52 C 214.87,213.63 204.6,211.43 199.86,211.41 C 196.13,211.4 195.02,211.96 191.18,215.81 C 183.97,223.01 182.73,233.4 188.11,241.53 C 190.23,244.73 191.35,245.39 196.35,246.4 C 199.53,247.03 203.49,247.93 205.14,248.38 C 212.32,250.37 215.42,249.66 220.1,244.98 z"
       stroke-miterlimit="4"
       inkscape:connector-curvature="0"
       style="fill:#132944;stroke:#000000;stroke-width:10;stroke-miterlimit:4;stroke-dasharray:none" />
    <path
       id="path3862"
       d="M -144.84,696.64 C -141.67,689.05 -133.76,666.43 -130.42,655.37 C -120.73,623.33 -115.53,592.67 -114.67,562.39 C -113.8,531.65 -116.22,515.51 -130.24,458.39 C -143.25,405.4 -144.13,398.34 -144.72,343.13 C -145.27,291.87 -144.46,281.69 -137.29,249.39 C -123.23,186.01 -100.65,133.79 -69.817,93.35 C -60.442,81.05 -39.971,59.681 -29.36,51.116 C 10.56,18.894 72.14,-4.124 144.14,-13.738 C 166.82,-16.766 217.56,-17.067 238.14,-14.295 C 303.81,-5.4476 353.36,17.144 408.56,63.409 C 448.03,96.494 491.3,145.585 523.85,194.219 C 530.68,204.419 532.51,207.849 531.67,208.859 C 531.07,209.589 525.27,213.359 518.78,217.239 C 477.79,241.749 443.89,268.489 403.54,308.149 C 391.65,319.839 381.43,329.399 380.83,329.399 C 380.24,329.399 375.96,325.019 371.33,319.649 C 354.06,299.649 313.89,264.199 292.14,249.759 C 268.86,234.319 235.5,218.699 212.14,212.329 C 204.21,210.159 178.39,207.399 166.23,207.409 C 153.73,207.429 135.57,209.219 119.8,211.979 C 96.358,216.089 71.759,225.999 56.35,237.539 C 48.401,243.489 27.615,265.019 19.821,275.369 C 7.559,291.659 -7.864,319.829 -16.336,341.399 C -18.604,347.179 -21.076,353.249 -21.83,354.899 C -23.82,359.259 -30.161,381.509 -31.316,388.189 C -31.859,391.329 -33.41,399.749 -34.762,406.899 C -38.915,428.869 -39.734,441.949 -38.771,470.899 C -37.457,510.419 -37.623,536.939 -39.224,543.399 C -41.257,551.599 -50.846,576.269 -57.306,589.919 C -76.603,630.679 -105.13,668.369 -134.32,691.649 C -142.8,698.419 -146.27,700.069 -144.84,696.649 z"
       stroke-miterlimit="4"
       inkscape:connector-curvature="0"
       style="fill:#ffbf00;stroke:#000000;stroke-width:10;stroke-miterlimit:4;stroke-dasharray:none" />
    <path
       id="path3860"
       d="M 365.14,805.7 C 354.97,804.8 330,801.03 319.14,798.77 C 275.28,789.62 225.51,771.44 156.64,739.4 C 134.14,728.93 83.37,703.54 81.778,701.95 C 80.664,700.85 80.619,699.09 81.528,692.34 C 82.139,687.79 82.634,682.24 82.628,679.99 L 82.616,675.89 L 68.878,669.17 C 61.322,665.47 49.74,660.15 43.14,657.33 C 31.496,652.38 -14.841,636.39 -17.577,636.39 C -18.323,636.39 -21.609,639.14 -24.88,642.5 C -30.734,648.51 -30.893,648.59 -35.197,648 C -49.208,646.08 -49.495,641.01 -37.409,608.89 C -33.682,598.99 -30.064,589.09 -29.367,586.89 C -28.671,584.69 -26.334,578.21 -24.175,572.49 C -19.018,558.82 -16.708,548.63 -15.303,533.37 C -14.005,519.28 -14.547,491.3 -16.368,478.39 C -17.951,467.16 -17.993,439.06 -16.443,428.39 C -14.463,414.78 -11.442,400.51 -8.7142,391.89 C 9.2848,335.03 18.1018,319.73 49.1398,291.5 C 65.1118,276.97 89.8288,263.35 117.6398,253.77 C 139.3898,246.27 146.3498,244.51 157.1398,243.77 C 166.2398,243.15 184.8198,244.56 191.4998,246.37 C 193.4998,246.91 200.7598,248.55 207.6398,250.01 C 229.2598,254.59 251.4398,264.15 270.3498,277.05 C 275.7298,280.72 282.1598,285.08 284.6398,286.75 C 302.5398,298.77 344.5498,338.27 359.7598,357.39 C 368.0398,367.8 378.6698,382.91 383.5298,391.19 C 386.5098,396.26 386.6398,396.95 386.6398,407.69 C 386.6298,413.85 387.1498,427.19 387.7798,437.32 L 388.9198,455.74 L 385.0098,459.32 C 382.8498,461.29 380.2398,463.46 376.7698,465.03 L 369.6098,468.27 L 374.1598,482.39 C 376.0398,488.21 380.2098,502.12 383.1898,513.39 C 386.1698,524.67 389.9498,538.84 391.5798,544.89 C 393.2198,550.94 394.5698,557.47 394.5798,559.39 C 394.6098,564.91 390.9698,579.92 387.9798,586.57 L 385.2598,592.63 L 405.9298,654.76 C 436.7798,747.53 447.6398,780.84 447.6398,782.71 C 447.6398,783.64 447.2998,784.39 446.8898,784.39 C 446.4798,784.39 439.8398,783.72 432.1398,782.9 C 424.4398,782.08 413.0798,780.87 406.9098,780.22 C 400.7298,779.56 395.4198,779.28 395.1098,779.59 C 394.7998,779.9 396.6398,785.38 399.1998,791.78 C 401.7598,798.17 403.5898,804.08 403.2798,804.9 C 402.7898,806.15 399.9998,806.37 385.9198,806.23 C 376.6898,806.13 367.3398,805.9 365.1398,805.7 z"
       stroke-miterlimit="4"
       inkscape:connector-curvature="0"
       style="fill:#ff7f00;stroke:#000000;stroke-width:10;stroke-miterlimit:4;stroke-dasharray:none" />
    <path
       id="path3858"
       d="M 432.64,782.7 C 407.75,780.05 395.04,778.22 393.99,777.16 C 391.8,774.95 367.63,710.2 350.77,661.39 C 342.69,638 327.98,593.16 317.14,558.89 C 314.01,548.99 310.93,540.36 310.29,539.72 C 309.66,539.07 301.26,537.35 291.64,535.9 C 265.83,532.01 236.24,525.88 224.13,521.91 C 211.15,517.66 201.64,512.79 201.64,510.39 C 201.64,507.09 216.92,494.69 229.64,487.67 C 242.35,480.66 259.11,475.81 282.14,472.47 C 297.72,470.22 332.36,467.86 336.11,468.8 C 338.66,469.44 340.76,475.02 345.53,493.9 C 349.8,510.79 352.64,536.97 352.64,559.49 V 571.18 L 360.39,578.88 C 369.19,587.61 375.24,591.57 381.01,592.35 L 384.99,592.89 L 405.3,653.89 C 428.31,723.05 447.64,781.88 447.64,782.78 C 447.64,783.41 438.85,783.36 432.64,782.7 z M 68.14,668.67 C 50.2,659.5 31.605,651.97 6.413,643.69 C -6.87,639.33 -17.325,635.37 -17.337,634.7 C -17.379,632.53 -3.239,616.5 1.454,613.39 C 7.5172,609.38 14.371,607.36 24.14,606.72 C 56.258,604.6 82.543,631.53 82.622,666.64 C 82.637,673.38 82.412,674.39 80.89,674.34 C 79.927,674.31 74.19,671.76 68.14,668.67 z"
       stroke-miterlimit="4"
       inkscape:connector-curvature="0"
       style="fill:#000300;stroke:#000000;stroke-width:10;stroke-miterlimit:4;stroke-dasharray:none" />
  </g>
</svg>
